<?xml version="1.0" encoding="UTF-8"?>
<svg width="412px" height="128px" viewBox="0 0 412 128" version="1.1" xmlns="http://www.w3.org/2000/svg" xmlns:xlink="http://www.w3.org/1999/xlink">
    <!-- Generator: Sketch 52.2 (67145) - http://www.bohemiancoding.com/sketch -->
    <title>Group 4</title>
    <desc>Created with Sketch.</desc>
    <defs>
        <text id="text-1" font-family="GreatLakesNF, Great Lakes NF" font-size="49" font-weight="normal" letter-spacing="2.882353" fill="#F1F1F1">
            <tspan x="7" y="56">Debate-O-TRON</tspan>
        </text>
        <filter x="-6.0%" y="-24.4%" width="112.1%" height="151.2%" filterUnits="objectBoundingBox" id="filter-2">
            <feOffset dx="0" dy="1" in="SourceAlpha" result="shadowOffsetOuter1"></feOffset>
            <feGaussianBlur stdDeviation="7" in="shadowOffsetOuter1" result="shadowBlurOuter1"></feGaussianBlur>
            <feColorMatrix values="0 0 0 0 0   0 0 0 0 0   0 0 0 0 0  0 0 0 1 0" type="matrix" in="shadowBlurOuter1"></feColorMatrix>
        </filter>
        <text id="text-3" font-family="GreatLakesNF, Great Lakes NF" font-size="10" font-weight="normal" letter-spacing="20" fill="#FFFFFF">
            <tspan x="2.96" y="13">LIGHTNING TALKS </tspan>
        </text>
        <filter x="-14.5%" y="-282.7%" width="128.9%" height="748.8%" filterUnits="objectBoundingBox" id="filter-4">
            <feOffset dx="0" dy="7" in="SourceAlpha" result="shadowOffsetOuter1"></feOffset>
            <feGaussianBlur stdDeviation="17" in="shadowOffsetOuter1" result="shadowBlurOuter1"></feGaussianBlur>
            <feColorMatrix values="0 0 0 0 0   0 0 0 0 0   0 0 0 0 0  0 0 0 1 0" type="matrix" in="shadowBlurOuter1"></feColorMatrix>
        </filter>
        <linearGradient x1="100%" y1="50%" x2="-2.22044605e-14%" y2="50%" id="linearGradient-5">
            <stop stop-color="#00FF4A" offset="0%"></stop>
            <stop stop-color="#FF00E5" offset="100%"></stop>
        </linearGradient>
        <path d="M150.071385,89.4673406 L144.257494,90.6920684 C143.527806,92.0891724 142.941967,93.6495507 142.499959,95.3732504 C142.910378,95.8268556 143.079424,96.2895259 143.007105,96.7612753 C142.943129,97.178592 142.208897,97.8227017 140.804385,98.6936236 C139.399873,99.5645456 138.493204,100 138.084351,100 C137.24887,100 136.93127,99.3468184 137.13154,98.0404355 C137.470888,95.8268422 138.076022,93.676786 138.946961,91.5902022 C138.218137,91.5902022 137.220446,91.6627779 135.95386,91.8079316 C134.687274,91.9530852 133.822903,92.025661 133.360722,92.025661 C132.276374,92.025661 131.441481,91.9349413 130.856017,91.7534992 C130.270554,91.5720572 129.855393,91.2363944 129.610523,90.7465008 C129.391774,90.2021746 129.224182,89.4401293 129.107742,88.4603421 C128.991302,87.480555 128.969242,86.7547976 129.041562,86.2830482 C129.102756,85.8838757 129.46427,85.1490463 130.126114,84.0785381 C130.787958,83.0080299 131.730219,81.7606344 132.952925,80.3363142 C134.175631,78.9119939 135.531758,77.5738787 137.021346,76.3219285 C138.613723,74.9792572 140.498412,73.6139261 142.67547,72.2258942 C144.852527,70.8378624 146.92758,69.6222188 148.900691,68.5789269 C150.873802,67.535635 152.631725,66.6783341 154.174514,66.0069984 C155.717303,65.3356628 156.622005,65 156.888648,65 C157.759682,65 158.118701,65.4989582 157.965717,66.4968896 C157.937901,66.6783316 157.680869,67.1954338 157.194613,68.0482115 C157.680005,68.5925377 157.88932,69.082424 157.822563,69.5178849 C157.727991,70.1347879 157.561773,70.6972499 157.323904,71.2052877 C157.086035,71.7133255 156.795266,72.1896038 156.451587,72.6341369 C156.107908,73.0786699 155.715199,73.5821641 155.273447,74.1446345 C154.319926,75.3784406 153.606187,76.2947093 153.132208,76.8934681 C152.658229,77.4922269 152.01756,78.308704 151.210181,79.3429238 C150.402802,80.3771436 149.733231,81.2661964 149.201447,82.0101089 C148.669663,82.7540213 148.090634,83.6612181 147.464342,84.7317263 C150.348083,84.2418327 151.93214,83.9968896 152.216559,83.9968896 C153.016488,83.9968896 153.36777,84.3144084 153.270416,84.9494557 C153.142465,85.7840892 152.076133,87.2900358 150.071385,89.4673406 Z M141.765092,85.1855204 C143.689259,82.1628808 145.61859,79.5701466 147.553143,77.4072398 C149.487695,75.2443331 151.367838,73.2805518 153.193629,71.5158371 C155.019419,69.7511224 155.952348,68.7420827 155.992442,68.4886878 C156.018217,68.325791 155.978066,68.2036203 155.871987,68.1221719 C155.765908,68.0407236 155.621359,68 155.438334,68 C155.072284,68 153.442628,68.8144715 150.549318,70.4434389 C147.492405,72.1810042 144.875103,73.8008975 142.697335,75.3031674 C140.519568,76.8054374 138.526254,78.44343 136.717334,80.2171946 C134.908414,81.9909591 133.335985,83.9185416 132,86 C135.585052,85.7828043 138.84005,85.5113138 141.765092,85.1855204 Z M183.249168,67.3764027 C184.037844,67.7583981 184.559074,68.3814049 184.812874,69.2454419 C185.066674,70.109479 185.062301,71.3873251 184.799755,73.0790186 C184.4017,75.6438444 183.462927,78.4087214 181.983408,81.3737327 C180.503889,84.338744 178.646691,87.121811 176.411757,89.7230172 C174.176823,92.3242234 171.746387,94.4706411 169.120376,96.1623347 C166.174645,98.054121 163.853854,99 162.157933,99 C160.840889,99 159.667157,98.5998204 158.636704,97.7994493 C157.60625,96.9990781 156.863282,95.8576569 156.407779,94.3751512 C155.952275,92.8926456 155.878382,91.1600499 156.186098,89.1773123 C156.615207,86.4123938 157.819418,83.5065444 159.798767,80.459677 C161.778115,77.4128096 164.117493,74.661575 166.816968,72.2058909 C169.516444,69.7502067 172.227592,67.8584487 174.950495,66.5305602 C177.673399,65.2026717 179.905848,64.7388272 181.647911,65.1390128 C182.781099,65.3936763 183.314846,66.1394655 183.249168,67.3764027 Z M175.82409,72.5376828 L177.097078,70.5669291 C175.932671,71.1068643 174.897677,71.6377927 173.992067,72.15973 C173.086457,72.6816674 172.023137,73.4195678 170.802078,74.3734533 C169.581018,75.3273389 168.271087,76.5241773 166.872245,77.9640045 C164.590546,80.3577173 162.787202,82.6749044 161.462159,84.9156355 C160.137115,87.1563667 159.350171,89.0596097 159.101303,90.6254218 C158.743733,92.8751519 159.33275,94 160.868371,94 C161.745869,94 163.077056,93.5320632 164.861972,92.5961755 C166.646889,91.6602878 168.583534,90.3734615 170.671965,88.735658 C172.678689,87.1518481 174.500618,85.3790874 176.137806,83.4173228 C177.774994,81.4555582 179.097091,79.5208194 180.104136,77.6130484 C181.111182,75.7052773 181.721966,74.0764972 181.936508,72.7266592 C182.073815,71.8627628 181.988419,71.1923533 181.680319,70.7154106 C181.372218,70.2384678 180.925675,70 180.340677,70 C179.792241,70 179.178925,70.2069721 178.500712,70.6209224 C177.822499,71.0348727 176.930301,71.6737865 175.82409,72.5376828 Z M211.249168,67.3764027 C212.037844,67.7583981 212.559074,68.3814049 212.812874,69.2454419 C213.066674,70.109479 213.062301,71.3873251 212.799755,73.0790186 C212.4017,75.6438444 211.462927,78.4087214 209.983408,81.3737327 C208.503889,84.338744 206.646691,87.121811 204.411757,89.7230172 C202.176823,92.3242234 199.746387,94.4706411 197.120376,96.1623347 C194.174645,98.054121 191.853854,99 190.157933,99 C188.840889,99 187.667157,98.5998204 186.636704,97.7994493 C185.60625,96.9990781 184.863282,95.8576569 184.407779,94.3751512 C183.952275,92.8926456 183.878382,91.1600499 184.186098,89.1773123 C184.615207,86.4123938 185.819418,83.5065444 187.798767,80.459677 C189.778115,77.4128096 192.117493,74.661575 194.816968,72.2058909 C197.516444,69.7502067 200.227592,67.8584487 202.950495,66.5305602 C205.673399,65.2026717 207.905848,64.7388272 209.647911,65.1390128 C210.781099,65.3936763 211.314846,66.1394655 211.249168,67.3764027 Z M203.82409,72.5376828 L205.097078,70.5669291 C203.932671,71.1068643 202.897677,71.6377927 201.992067,72.15973 C201.086457,72.6816674 200.023137,73.4195678 198.802078,74.3734533 C197.581018,75.3273389 196.271087,76.5241773 194.872245,77.9640045 C192.590546,80.3577173 190.787202,82.6749044 189.462159,84.9156355 C188.137115,87.1563667 187.350171,89.0596097 187.101303,90.6254218 C186.743733,92.8751519 187.33275,94 188.868371,94 C189.745869,94 191.077056,93.5320632 192.861972,92.5961755 C194.646889,91.6602878 196.583534,90.3734615 198.671965,88.735658 C200.678689,87.1518481 202.500618,85.3790874 204.137806,83.4173228 C205.774994,81.4555582 207.097091,79.5208194 208.104136,77.6130484 C209.111182,75.7052773 209.721966,74.0764972 209.936508,72.7266592 C210.073815,71.8627628 209.988419,71.1923533 209.680319,70.7154106 C209.372218,70.2384678 208.925675,70 208.340677,70 C207.792241,70 207.178925,70.2069721 206.500712,70.6209224 C205.822499,71.0348727 204.930301,71.6737865 203.82409,72.5376828 Z M239.249168,67.3764027 C240.037844,67.7583981 240.559074,68.3814049 240.812874,69.2454419 C241.066674,70.109479 241.062301,71.3873251 240.799755,73.0790186 C240.4017,75.6438444 239.462927,78.4087214 237.983408,81.3737327 C236.503889,84.338744 234.646691,87.121811 232.411757,89.7230172 C230.176823,92.3242234 227.746387,94.4706411 225.120376,96.1623347 C222.174645,98.054121 219.853854,99 218.157933,99 C216.840889,99 215.667157,98.5998204 214.636704,97.7994493 C213.60625,96.9990781 212.863282,95.8576569 212.407779,94.3751512 C211.952275,92.8926456 211.878382,91.1600499 212.186098,89.1773123 C212.615207,86.4123938 213.819418,83.5065444 215.798767,80.459677 C217.778115,77.4128096 220.117493,74.661575 222.816968,72.2058909 C225.516444,69.7502067 228.227592,67.8584487 230.950495,66.5305602 C233.673399,65.2026717 235.905848,64.7388272 237.647911,65.1390128 C238.781099,65.3936763 239.314846,66.1394655 239.249168,67.3764027 Z M232.82409,72.5376828 L234.097078,70.5669291 C232.932671,71.1068643 231.897677,71.6377927 230.992067,72.15973 C230.086457,72.6816674 229.023137,73.4195678 227.802078,74.3734533 C226.581018,75.3273389 225.271087,76.5241773 223.872245,77.9640045 C221.590546,80.3577173 219.787202,82.6749044 218.462159,84.9156355 C217.137115,87.1563667 216.350171,89.0596097 216.101303,90.6254218 C215.743733,92.8751519 216.33275,94 217.868371,94 C218.745869,94 220.077056,93.5320632 221.861972,92.5961755 C223.646889,91.6602878 225.583534,90.3734615 227.671965,88.735658 C229.678689,87.1518481 231.500618,85.3790874 233.137806,83.4173228 C234.774994,81.4555582 236.097091,79.5208194 237.104136,77.6130484 C238.111182,75.7052773 238.721966,74.0764972 238.936508,72.7266592 C239.073815,71.8627628 238.988419,71.1923533 238.680319,70.7154106 C238.372218,70.2384678 237.925675,70 237.340677,70 C236.792241,70 236.178925,70.2069721 235.500712,70.6209224 C234.822499,71.0348727 233.930301,71.6737865 232.82409,72.5376828 Z" id="path-6"></path>
        <filter x="-8.5%" y="-15.7%" width="117.0%" height="162.9%" filterUnits="objectBoundingBox" id="filter-7">
            <feOffset dx="0" dy="7" in="SourceAlpha" result="shadowOffsetOuter1"></feOffset>
            <feGaussianBlur stdDeviation="2" in="shadowOffsetOuter1" result="shadowBlurOuter1"></feGaussianBlur>
            <feColorMatrix values="0 0 0 0 0   0 0 0 0 0   0 0 0 0 0  0 0 0 1 0" type="matrix" in="shadowBlurOuter1"></feColorMatrix>
        </filter>
    </defs>
    <g id="Page-1" stroke="none" stroke-width="1" fill="none" fill-rule="evenodd">
        <g id="Group-4" transform="translate(27.000000, 17.000000)">
            <g id="Debate-O-TRON" fill="#F1F1F1" fill-opacity="1">
                <use filter="url(#filter-2)" xlink:href="#text-1"></use>
                <use xlink:href="#text-1"></use>
            </g>
            <g id="LIGHTNING-TALKS" fill="#FFFFFF" fill-opacity="1">
                <use filter="url(#filter-4)" xlink:href="#text-3"></use>
                <use xlink:href="#text-3"></use>
            </g>
            <g id="4000">
                <use fill="black" fill-opacity="1" filter="url(#filter-7)" xlink:href="#path-6"></use>
                <use fill="url(#linearGradient-5)" fill-rule="evenodd" xlink:href="#path-6"></use>
            </g>
        </g>
    </g>
</svg>